<svg preserveAspectRatio="none" overflow="visible" style="display: block;" width="14.4" height="14.4" viewBox="0 0 14.4 14.4" fill="none" xmlns="http://www.w3.org/2000/svg">
<g id="history">
<path id="Vector" d="M1.8 7.2C1.8 8.26802 2.1167 9.31205 2.71006 10.2001C3.30342 11.0881 4.14679 11.7802 5.13351 12.1889C6.12023 12.5977 7.20599 12.7046 8.25349 12.4962C9.30098 12.2879 10.2632 11.7736 11.0184 11.0184C11.7736 10.2632 12.2879 9.30098 12.4962 8.25349C12.7046 7.20599 12.5977 6.12023 12.1889 5.13351C11.7802 4.14679 11.0881 3.30342 10.2001 2.71006C9.31205 2.1167 8.26802 1.8 7.2 1.8C5.69037 1.80568 4.24138 2.39473 3.156 3.444L1.8 4.8M4.8 4.8H1.8V1.8M7.2 4.2V7.2L9.6 8.4" stroke="#A2ACB9" stroke-linecap="round"/>
</g>
</svg>
