<svg preserveAspectRatio="none" overflow="visible" style="display: block;" width="233.244" height="150.439" viewBox="0 0 233.244 150.439" fill="none" xmlns="http://www.w3.org/2000/svg">
<path id="Road casing" d="M227.089 145.377C210.117 145.609 189.084 145.291 160.208 142.292C151.474 141.385 143.297 140.64 135.573 140.04L137.933 127.907L138.231 126.377L137.606 124.948L129.087 105.482C136.144 105.22 143.506 104.741 151.277 104.001C178.594 101.4 197.89 95.0131 214.748 87.4053L227.089 145.377ZM15.597 96.3193C52.5895 100.533 81.8206 105.976 118.277 105.722L127.819 127.528L125.525 139.324C78.1235 136.277 47.7768 139.102 6.22977 143.893V143.889L15.597 96.3193ZM70.0091 40.4834L71.22 40.6777L72.3831 40.29L93.4895 33.2559L92.4866 45.2881L92.3811 46.5488L92.889 47.708L113.902 95.7266C80.4864 95.5493 53.3558 90.5776 17.5354 86.4756L22.3753 61.9033L22.6106 60.707L22.2688 59.5371L14.0882 31.498L70.0091 40.4834ZM218.889 9.90527L212.492 75.6875L212.418 76.457L212.578 77.2129L212.615 77.3867C196.066 85.0362 177.416 91.4668 150.328 94.0459C141.282 94.9072 132.82 95.406 124.769 95.6152L102.557 44.8574L103.81 29.8164L177.991 5.0957L218.889 9.90527Z" stroke="#222C37" stroke-width="10"/>
</svg>
