<svg preserveAspectRatio="none" overflow="visible" style="display: block;" width="20" height="20" viewBox="0 0 20 20" fill="none" xmlns="http://www.w3.org/2000/svg">
<g id="user-x">
<path id="Vector" d="M13.3336 17.5V15.8333C13.3336 14.9493 12.9824 14.1014 12.3572 13.4763C11.732 12.8512 10.8841 12.5 10 12.5H4.9996C4.11547 12.5 3.26756 12.8512 2.64239 13.4763C2.01722 14.1014 1.666 14.9493 1.666 15.8333V17.5M14.167 6.66667L18.334 10.8333M18.334 6.66667L14.167 10.8333M10.8334 5.83333C10.8334 7.67428 9.3409 9.16667 7.4998 9.16667C5.6587 9.16667 4.1662 7.67428 4.1662 5.83333C4.1662 3.99238 5.6587 2.5 7.4998 2.5C9.3409 2.5 10.8334 3.99238 10.8334 5.83333Z" stroke="#A2ACB9" stroke-width="1.6" stroke-linecap="round"/>
</g>
</svg>
