<svg preserveAspectRatio="none" overflow="visible" style="display: block;" width="19" height="19" viewBox="0 0 19 19" fill="none" xmlns="http://www.w3.org/2000/svg">
<g id="pencil" clip-path="url(#clip0_41_364)">
<path id="Vector" d="M11.8753 3.95766L15.0422 7.12427M16.7634 5.39244C17.182 4.97399 17.4172 4.40641 17.4173 3.81456C17.4174 3.2227 17.1823 2.65507 16.7638 2.23651C16.3453 1.81796 15.7777 1.58277 15.1858 1.5827C14.5939 1.58263 14.0262 1.81767 13.6076 2.23612L3.04103 12.8039C2.8572 12.9872 2.72126 13.2128 2.64516 13.461L1.59927 16.9062C1.57881 16.9747 1.57727 17.0474 1.5948 17.1167C1.61234 17.186 1.6483 17.2492 1.69887 17.2997C1.74945 17.3502 1.81274 17.386 1.88205 17.4035C1.95136 17.4209 2.02409 17.4192 2.09253 17.3986L5.53896 16.3537C5.78691 16.2783 6.01256 16.1432 6.1961 15.9602L16.7634 5.39244Z" stroke="#F5F6F8" stroke-width="1.6" stroke-linecap="round"/>
</g>
<defs>
<clipPath id="clip0_41_364">
<rect width="19" height="19" fill="white"/>
</clipPath>
</defs>
</svg>
